<?xml version="1.0" encoding="UTF-8"?>
<svg id="ucretsiz_basvuru" xmlns="http://www.w3.org/2000/svg" viewBox="0 0 448 512">
  <path class="cls-1" d="m424.24,310.27c2.08-1.85,4.08-3.55,6-5.34,10.84-10.07,9.76-27.8-2.43-34.85-3.26-1.89-3.41-3.2-2.21-6.43,5.63-15.07-6.18-31.22-21.57-28.62-6.97,1.18-12.37,2.59-15.65-5.34-.46-1.12-2.14-1.82-3.35-2.54-9.42-5.61-19.66-4.13-28.13,4.35-12.7,12.73-25.22,25.64-37.89,38.41-1.13,1.14-1.84,3.18-4.23,2.75-.17-8.88-4.88-15.21-11.98-19.63-15.78-9.83-35.49,2-36.02,21.56-.26,9.61-.17,19.23.02,28.84.06,3.09-.95,4.72-3.69,6.18-26.01,13.84-51.94,13.86-77.98.08-2.89-1.53-4.02-3.28-3.97-6.59.15-10.68.29-21.37-.24-32.03-.48-9.7-6.59-15.94-15.03-19.67-8.63-3.82-16.67-1.96-23.83,4.05-5.41,4.54-8.54,10.29-8.87,17.5-2.36-.58-3.25-2.23-4.44-3.43-12.41-12.52-24.76-25.1-37.16-37.63-12.07-12.19-27.08-10.65-36.07,3.93-1.5,2.43-2.59,1.63-4.19.91-8.99-4.02-17.35-2.49-24.11,4.19-6.83,6.75-8.03,15.27-4.19,24.13,1.08,2.5.36,3.2-1.67,4.41-12.9,7.75-14.69,24.32-3.97,35.01,2.08,2.07,4.81,3.54,6.31,6.27-14.79,7.66-17.95,24.56-6.52,36.17,13.37,13.57,26.86,27.06,40.96,39.85,27.32,24.79,68.67,25.01,96.62,1.08,19.19-16.43,27.38-37.5,26.51-62.47-.2-5.84-.04-5.8,4.99-3.38,17.42,8.34,35.61,10.33,54.58,6.91,8.95-1.61,17.26-4.88,25.89-9.25,0,3.64-.05,6.47,0,9.3.25,11.65,1.98,23,7.04,33.66,22.18,46.8,81.67,57.34,119.72,21.11,11.86-11.3,23.06-23.31,35.24-34.24,11.39-10.22,13.52-29.56-4.5-39.21Zm-254.9,32.98c-6.79,38.71-49.62,61.87-86,46.52-9.32-3.93-17.46-9.43-24.51-16.66-11.19-11.47-22.57-22.75-33.73-34.25-5.89-6.08-4.93-13.57,2.11-17.36,3.89-2.09,7.73-2.23,11.23,1.27,4.27,4.28,8.77,8.34,13.14,12.53,2.02,1.93,4.21,2.96,6.55.79,2.62-2.42,1.47-4.73-.63-6.86-10.73-10.92-21.47-21.83-32.14-32.8-5.61-5.76-5.46-11.96.23-16.52,4.55-3.64,9.08-3.46,13.29.65,10.06,9.83,20.09,19.69,30.13,29.54,1.4,1.37,2.78,2.76,4.21,4.1,2.09,1.97,4.39,2.57,6.56.3,1.97-2.05,1.41-4.19-.43-6.11-1.97-2.05-3.91-4.14-5.91-6.17-12.38-12.55-24.78-25.07-37.16-37.62-5.21-5.29-5.76-10.21-1.74-15.04,4.01-4.83,8.87-5.39,14.04-1.69,4.68,3.35,8.25,7.82,12.27,11.84,10.71,10.69,21.58,21.22,32.39,31.81,2.2,2.16,4.54,4.74,7.68,1.78,3.17-2.99.72-5.39-1.46-7.62-10.35-10.54-20.7-21.09-31.06-31.63-5.81-5.92-6.26-10.75-1.47-15.7,5.01-5.17,10.1-5,16.18,1.01,15.96,15.76,31.79,31.65,47.68,47.49,1.13,1.13,2.18,2.38,3.45,3.34,1.87,1.42,3.82,2.39,6.38,1.25,2.55-1.13,3.25-3.02,3.24-5.52-.02-3.92-.24-7.85.08-11.74.69-8.44,6.58-14.29,13.74-14,7.56.3,12.69,6.01,12.85,14.81.18,10.32.04,20.65.04,33.11-.54,10.29.95,22.76-1.22,35.15Zm255.86-7.03c-.98,1.46-2.2,2.79-3.45,4.05-11.58,11.58-23.08,23.23-34.81,34.65-31.09,30.25-79.16,24.65-100.74-11.63-6.27-10.54-8.59-22.1-8.74-34.18-.1-8.54-.02-17.08-.02-25.62,0-9.43-.19-18.87.07-28.29.16-5.9,1.91-11.24,8.07-13.82,5.11-2.14,9.73-1.11,13.99,2.17,3.6,2.77,4.21,6.87,4.51,10.95.27,3.72.04,7.47.08,11.21.03,2.43.63,4.44,3.15,5.65,2.74,1.32,4.81.12,6.83-1.34,1.14-.82,2.05-1.97,3.06-2.97,15.75-15.71,31.49-31.44,47.27-47.11,5.58-5.54,10.06-6.32,15.06-2.85,5.68,3.94,6.5,10.57,1.68,15.53-10.3,10.59-20.73,21.05-31.09,31.58-1.24,1.27-2.44,2.59-3.57,3.96-1.36,1.65-1.01,3.35.27,4.84,1.44,1.68,3.32,2.17,5.24.95,1.33-.85,2.47-2.02,3.61-3.15,12.5-12.41,25.47-24.35,37.47-37.27,1.57-1.69,3.35-3.19,5.15-4.64,5.86-4.69,10.55-4.57,14.99.28,4.23,4.62,3.98,10.01-1.01,15.09-13.58,13.85-27.3,27.56-40.84,41.45-2.24,2.3-6.8,4.7-3.04,8.67,4.03,4.26,6.63-.33,9.11-2.72,10.51-10.13,20.88-20.39,31.3-30.61,4.78-4.69,9.81-4.87,14.47-.5,4.56,4.28,5.1,9.88.66,14.6-7.92,8.42-16.23,16.48-24.34,24.72-3.24,3.3-6.4,6.68-9.58,10.05-1.85,1.96-2.23,4.06-.16,6.08,2.05,1.99,4.19,1.63,6.14-.19,4.55-4.25,9.04-8.57,13.58-12.83,4.11-3.86,8.92-3.84,13.32-.02,4.31,3.75,5.25,8.87,2.3,13.28Z"/>
  <path class="cls-1" d="m60.13,207.64c3.71.93,6.13-1.17,7.21-4.67.63-2.03.97-4.15,1.47-6.22,4.98-20.61,13.03-39.98,26.02-56.74,38.6-49.81,89.52-72.07,152.08-63.41,57.3,7.93,97.98,39.94,123.1,91.86,5.36,11.09,8.6,22.91,11.58,34.8.82,3.29,2.79,5.04,6.13,4.48,2.89-.49,3.97-2.71,3.87-6.47-.3-1.34-.77-3.6-1.31-5.84-10.31-42.56-33.03-77.05-69.24-101.59-43.63-29.57-91.75-37.5-142.62-23.67-49.83,13.54-85.79,44.56-108.43,90.86-6.1,12.47-10.19,25.73-13.12,39.32-.71,3.29-.5,6.35,3.27,7.29Z"/>
  <path class="cls-1" d="m151.24,173.86c-10.85,10.56-15.16,24.6-17.96,39.08-.49,2.55.92,4.58,3.43,5.35,2.4.74,4.58.21,5.99-2.15,1.01-1.69,1.61-3.47,2.07-5.42,2.4-10.12,6.26-19.64,12.83-27.83,6.94-8.65,16.76-9.2,24.46-1.41,4.18,4.22,7.19,9.23,9.56,14.65,2.5,5.72,4.33,11.62,5.58,17.74.64,3.11,2.66,5.18,6.11,4.57,2.98-.53,4.59-2.53,4.5-6.57-2.86-12.25-7.21-24.83-15.98-35.28-11.14-13.29-27.73-15.25-40.61-2.72Z"/>
  <path class="cls-1" d="m275.95,165.51c-10.01,1.15-18.03,6.16-23.44,14.89-5.75,9.28-9.79,19.21-11.91,29.96-.73,3.7-.88,7.07,3.51,8.02,4.37.94,5.69-2.04,6.46-5.83,2.23-10.94,6.88-20.85,13.84-29.6,7.02-8.83,17.02-9.3,24.78-1.2,2.45,2.56,4.6,5.37,6.34,8.52,4.08,7.36,6.83,15.15,8.48,23.38.62,3.08,2.47,5.29,5.95,4.8,3.28-.46,4.88-2.63,4.7-7.04-3.9-14.37-8.55-29.53-21.43-40.14-4.8-3.95-10.92-6.5-17.27-5.77Z"/>
  <path class="cls-1" d="m268.77,390.54c-2.06-1.62-4.3-.98-6.6-.44-17.92,4.25-36.01,5.96-54.41,3.83-7.77-.9-15.42-2.26-23-4.15-3.49-.87-6.73-.11-7.6,3.74-.82,3.65,1.25,6.05,4.96,6.89.69.16,1.35.44,2.05.59,13.05,2.76,26.2,4.68,38.82,4.48,14.86.15,28.72-1.66,42.42-4.89,2.52-.59,4.85-1.49,5.43-4.36.45-2.23-.22-4.27-2.06-5.71Z"/>
  <path class="cls-2" d="m422.9,322.94c-4.4-3.83-9.21-3.84-13.32.02-4.54,4.26-9.03,8.58-13.58,12.83-1.95,1.82-4.09,2.18-6.14.19-2.08-2.02-1.69-4.12.16-6.08,3.17-3.37,6.33-6.75,9.58-10.05,8.11-8.25,16.42-16.3,24.34-24.72,4.44-4.72,3.9-10.33-.66-14.6-4.66-4.37-9.69-4.19-14.47.5-10.42,10.22-20.79,20.48-31.3,30.61-2.48,2.39-5.07,6.98-9.11,2.72-3.76-3.97.8-6.37,3.04-8.67,13.54-13.89,27.26-27.61,40.84-41.45,4.99-5.08,5.24-10.47,1.01-15.09-4.45-4.85-9.14-4.97-14.99-.28-1.8,1.44-3.59,2.95-5.15,4.64-12,12.92-24.97,24.86-37.47,37.27-1.13,1.13-2.28,2.3-3.61,3.15-1.91,1.22-3.79.73-5.24-.95-1.28-1.49-1.62-3.19-.27-4.84,1.13-1.37,2.32-2.69,3.57-3.96,10.36-10.53,20.79-20.99,31.09-31.58,4.82-4.96,4-11.59-1.68-15.53-5-3.46-9.48-2.69-15.06,2.85-15.79,15.67-31.52,31.4-47.27,47.11-1.01,1-1.92,2.15-3.06,2.97-2.02,1.46-4.09,2.65-6.83,1.34-2.51-1.21-3.12-3.22-3.15-5.65-.04-3.74.19-7.49-.08-11.21-.29-4.08-.9-8.18-4.51-10.95-4.26-3.28-8.88-4.31-13.99-2.17-6.16,2.58-7.91,7.93-8.07,13.82-.26,9.42-.07,18.86-.07,28.29,0,8.54-.09,17.08.02,25.62.15,12.08,2.47,23.64,8.74,34.18,21.57,36.28,69.65,41.88,100.74,11.63,11.73-11.42,23.23-23.08,34.81-34.65,1.25-1.25,2.47-2.58,3.45-4.05,2.95-4.41,2.02-9.53-2.3-13.28Z"/>
  <path class="cls-2" d="m170.52,274.98c-.15-8.8-5.29-14.51-12.85-14.81-7.16-.29-13.05,5.56-13.74,14-.32,3.89-.1,7.83-.08,11.74.01,2.5-.69,4.39-3.24,5.52-2.56,1.14-4.51.17-6.38-1.25-1.27-.96-2.32-2.21-3.45-3.34-15.89-15.84-31.72-31.73-47.68-47.49-6.09-6.01-11.18-6.18-16.18-1.01-4.79,4.95-4.34,9.78,1.47,15.7,10.35,10.54,20.7,21.09,31.06,31.63,2.19,2.23,4.63,4.62,1.46,7.62-3.13,2.96-5.47.38-7.68-1.78-10.81-10.59-21.68-21.12-32.39-31.81-4.03-4.02-7.59-8.49-12.27-11.84-5.17-3.69-10.03-3.14-14.04,1.69-4.01,4.83-3.47,9.75,1.74,15.04,12.38,12.55,24.78,25.07,37.16,37.62,2,2.03,3.94,4.12,5.91,6.17,1.85,1.92,2.4,4.05.43,6.11-2.17,2.27-4.47,1.67-6.56-.3-1.42-1.34-2.81-2.73-4.21-4.1-10.04-9.85-20.07-19.71-30.13-29.54-4.21-4.11-8.74-4.29-13.29-.65-5.69,4.56-5.84,10.76-.23,16.52,10.67,10.97,21.42,21.88,32.14,32.8,2.1,2.14,3.26,4.44.63,6.86-2.34,2.16-4.53,1.14-6.55-.79-4.37-4.19-8.86-8.25-13.14-12.53-3.5-3.51-7.34-3.37-11.23-1.27-7.04,3.79-8,11.28-2.11,17.36,11.15,11.5,22.53,22.79,33.73,34.25,7.06,7.23,15.2,12.73,24.51,16.66,36.38,15.35,79.2-7.82,86-46.52,2.18-12.39.68-24.87,1.22-35.15,0-12.46.14-22.79-.04-33.11Z"/>
</svg>