<?xml version="1.0" encoding="UTF-8"?>
<svg id="online-basvuru" xmlns="http://www.w3.org/2000/svg" viewBox="0 0 70 70">
  <defs>
    <style>
      .cls-1 {
        fill: #232445;
      }

      .cls-1, .cls-2 {
        stroke-width: 0px;
      }

      .cls-2 {
        fill: #fff;
      }
    </style>
  </defs>
  <path class="cls-1" d="m46.25,55.37c.05,1.49-.71,2.27-1.98,2.6-.54.14-1.13.13-1.69.14-10.73,0-21.46,0-32.19,0-3.13,0-4.16-1.23-3.7-4.37,1.18-7.96,6.49-13.2,14.55-13.94,3.57-.33,7.19-.06,10.92-.06-.16,4.2.92,7.87,3.73,10.94,2.78,3.03,6.28,4.47,10.37,4.69Z"/>
  <path class="cls-1" d="m15.15,23.9c.01-6.23,5.1-11.32,11.32-11.32,6.2,0,11.31,5.1,11.34,11.33.03,6.24-5.18,11.44-11.42,11.39-6.23-.05-11.25-5.15-11.24-11.4Z"/>
  <path class="cls-1" d="m53.01,50.41c-6.59,3.81-12.89,1.38-15.88-2.79-3.05-4.25-2.57-10.57,1.14-14.43,3.68-3.83,9.88-4.51,14.34-1.56,4.06,2.69,7.27,8.58,3.26,15.94,1.89,1.87,3.8,3.78,5.72,5.68.34.33.68.66,1,1.01,1.01,1.11,1.1,2.32.26,3.18-.88.9-2.03.85-3.15-.21-1-.94-1.96-1.93-2.93-2.91-1.26-1.29-2.49-2.6-3.75-3.92Zm-13.73-9.32c.02,3.92,3.3,7.16,7.21,7.12,3.87-.04,7.19-3.41,7.13-7.24-.06-3.77-3.41-7.06-7.19-7.07-3.87,0-7.18,3.31-7.16,7.19Z"/>
  <path class="cls-2" d="m39.28,41.08c-.02-3.88,3.29-7.2,7.16-7.19,3.78,0,7.13,3.3,7.19,7.07.06,3.83-3.26,7.2-7.13,7.24-3.91.04-7.2-3.2-7.21-7.12Z"/>
</svg>