<?xml version="1.0" encoding="UTF-8"?>
<svg id="mesleki_sertifikasyon" data-name="mesleki sertifikasyon" xmlns="http://www.w3.org/2000/svg" viewBox="0 0 576 512">
  <defs>
    <style>
      .mesleki_sertifikasyon {
        stroke-width: 0px;
      }
    </style>
  </defs>
  <g id="mesleki_sertifikasyon" data-name="mesleki sertifikasyon">
    <path class="cls-1" d="m256,0h64c17.7,0,32,14.3,32,32v64c0,17.7-14.3,32-32,32h-64c-17.7,0-32-14.3-32-32V32c0-17.7,14.3-32,32-32ZM64,64h128v48c0,26.5,21.5,48,48,48h96c26.5,0,48-21.5,48-48v-48h128c35.3,0,64,28.7,64,64v320c0,35.3-28.7,64-64,64H64c-35.3,0-64-28.7-64-64V128c0-35.3,28.7-64,64-64Zm112,373.3c0,5.9,4.8,10.7,10.7,10.7h202.6c5.9,0,10.7-4.8,10.7-10.7,0-29.5-23.9-53.3-53.3-53.3h-117.4c-29.5,0-53.3,23.9-53.3,53.3Zm112-85.3c35.35,0,64-28.65,64-64s-28.65-64-64-64-64,28.65-64,64,28.65,64,64,64Z"/>
  </g>
</svg>