<?xml version="1.0" encoding="UTF-8"?>
<svg id="_İnstagram" data-name="İnstagram" xmlns="http://www.w3.org/2000/svg" viewBox="0 0 200 200">
  <defs>
    <style>
      .cls-1 {
        stroke-width: 0px;
      }
    </style>
  </defs>
  <path class="cls-1" d="m64.7,15.32c-27.23,0-49.39,22.17-49.39,49.41v70.57c0,27.23,22.17,49.39,49.41,49.39h70.57c27.23,0,49.39-22.17,49.39-49.41v-70.57c0-27.23-22.17-49.39-49.41-49.39h-70.57Zm84.7,28.23c3.9,0,7.06,3.16,7.06,7.06s-3.16,7.06-7.06,7.06-7.06-3.16-7.06-7.06,3.16-7.06,7.06-7.06Zm-49.4,14.11c23.35,0,42.34,18.99,42.34,42.34s-18.99,42.34-42.34,42.34-42.34-18.99-42.34-42.34,18.99-42.34,42.34-42.34Zm0,14.11c-15.59,0-28.23,12.64-28.23,28.23s12.64,28.23,28.23,28.23,28.23-12.64,28.23-28.23-12.64-28.23-28.23-28.23Z"/>
</svg>