<?xml version="1.0" encoding="UTF-8"?>
<svg id="Linkedin" xmlns="http://www.w3.org/2000/svg" viewBox="0 0 200 200">
  <defs>
    <style>
      .cls-1 {
        stroke-width: 0px;
      }
    </style>
  </defs>
  <path class="cls-1" d="m165.87,15.32H34.13c-10.4,0-18.82,8.42-18.82,18.82v131.73c0,10.4,8.42,18.82,18.82,18.82h131.73c10.4,0,18.82-8.42,18.82-18.82V34.13c0-10.4-8.42-18.82-18.82-18.82ZM59.9,147.05h0c-6.56,0-11.87-5.32-11.87-11.87v-42.13c0-6.55,5.33-11.87,11.87-11.87h0c6.56,0,11.87,5.32,11.87,11.87v42.13c0,6.55-5.32,11.87-11.87,11.87Zm-.41-77.94c-7.25,0-12.1-4.84-12.1-11.29s4.84-11.29,12.9-11.29c7.25,0,12.1,4.84,12.1,11.29s-4.84,11.29-12.9,11.29Zm85.48,77.94h0c-6.34,0-11.49-5.15-11.49-11.49v-24.51c0-9.96-6.13-11.05-8.42-11.05s-9.96.33-9.96,11.05v24.51c0,6.34-5.15,11.49-11.49,11.49h-.76c-6.34,0-11.49-5.15-11.49-11.49v-42.5c0-6.56,5.32-11.87,11.87-11.87h0c6.56,0,11.87,5.32,11.87,11.87,0,0,2.65-11.87,20.68-11.87,11.47,0,20.66,9.19,20.66,29.87v24.51c0,6.34-5.15,11.49-11.49,11.49Z"/>
</svg>