<?xml version="1.0" encoding="UTF-8"?>
<svg id="sosyal-destek" xmlns="http://www.w3.org/2000/svg" viewBox="0 0 640 512">
  <path class="sosyal-destek-1" d="m0,24C0,10.7,10.7,0,24,0h592c13.3,0,24,10.7,24,24s-10.7,24-24,24H24C10.7,48,0,37.3,0,24Zm0,464c0-13.3,10.7-24,24-24h592c13.3,0,24,10.7,24,24s-10.7,24-24,24H24c-13.3,0-24-10.7-24-24ZM83.2,160c0-35.35,28.65-64,64-64s64,28.65,64,64-28.65,64-64,64-64-28.65-64-64Zm-51.2,160c0-35.3,28.7-64,64-64h96c12.2,0,23.7,3.4,33.4,9.4-37.2,15.1-65.6,47.2-75.8,86.6h-85.6c-17.7,0-32-14.3-32-32Zm461.6,32c-10.3-40.1-39.6-72.6-77.7-87.4,9.4-5.5,20.4-8.6,32.1-8.6h96c35.3,0,64,28.7,64,64,0,17.7-14.3,32-32,32h-82.4Zm-102.4-61.6c32.1,7.4,58.1,30.9,68.9,61.6,3.5,10,5.5,20.8,5.5,32,0,17.7-14.3,32-32,32h-224c-17.7,0-32-14.3-32-32,0-11.2,1.9-22,5.5-32,10.5-29.7,35.3-52.8,66.1-60.9,7.8-2.1,16-3.1,24.5-3.1h96c7.4,0,14.7.8,21.6,2.4h-.1Zm44-130.4c0-35.35,28.65-64,64-64s64,28.65,64,64-28.65,64-64,64-64-28.65-64-64Zm-113.6-64c44.18,0,80,35.82,80,80s-35.82,80-80,80-80-35.82-80-80,35.82-80,80-80Z"/>
</svg>