<?xml version="1.0" encoding="UTF-8"?>
<svg id="genel-logo" xmlns="http://www.w3.org/2000/svg" xmlns:xlink="http://www.w3.org/1999/xlink" viewBox="0 0 250 250">
  <defs>
    <style>
      .cls-1 {
        mask: url(#mask);
      }

      .cls-2, .cls-3, .cls-4 {
        stroke-width: 0px;
      }

      .cls-5 {
        isolation: isolate;
      }

      .cls-6 {
        filter: url(#luminosity-invert-noclip);
      }

      .cls-3 {
        fill: #232447;
      }

      .cls-4 {
        fill: #fff;
      }
    </style>
    <filter id="luminosity-invert-noclip" x="-26.96" y="-16.55" width="301.06" height="156.35" color-interpolation-filters="sRGB" filterUnits="userSpaceOnUse">
      <feColorMatrix result="cm" values="-1 0 0 0 1 0 -1 0 0 1 0 0 -1 0 1 0 0 0 1 0"/>
      <feFlood flood-color="#fff" result="bg"/>
      <feBlend in="cm" in2="bg"/>
    </filter>
    <mask id="mask" x="-26.96" y="-16.55" width="301.06" height="156.35" maskUnits="userSpaceOnUse">
      <g class="cls-6">
        <rect class="cls-2" x="-26.96" y="-16.55" width="301.06" height="155.75"/>
      </g>
    </mask>
  </defs>
  <rect class="cls-3" x="-.9" y="-1.05" width="250.9" height="252.09"/>
  <g>
    <g>
      <g>
        <path class="cls-4" d="m57.53,190.32v.33h-6.27v-.33h.4c.35,0,.63-.06.84-.19.15-.08.27-.22.35-.42.06-.14.1-.51.1-1.11v-7.89c0-.61-.03-1-.1-1.15-.06-.15-.2-.29-.39-.4-.2-.11-.46-.17-.8-.17h-.4v-.33h6.27v.33h-.4c-.35,0-.63.06-.84.19-.15.08-.27.22-.36.42-.06.14-.1.51-.1,1.11v7.89c0,.61.03,1,.1,1.15.07.15.2.29.4.4.2.11.46.17.8.17h.4Z"/>
        <path class="cls-4" d="m62.03,178.65l5.92,7.44v-5.16c0-.72-.1-1.21-.31-1.46-.28-.34-.76-.51-1.42-.5v-.33h3.96v.33c-.51.07-.85.15-1.02.25-.17.1-.31.27-.41.5-.1.23-.15.63-.15,1.2v9.99h-.3l-8.11-9.99v7.63c0,.69.16,1.16.47,1.4.32.24.68.36,1.08.36h.28v.33h-4.26v-.33c.66,0,1.12-.14,1.38-.41.26-.27.39-.72.39-1.35v-8.47l-.26-.32c-.25-.32-.48-.53-.67-.63-.19-.1-.47-.16-.84-.17v-.33h4.26Z"/>
        <path class="cls-4" d="m81.6,178.65v3.25h-.32c-.19-.75-.4-1.29-.63-1.61-.23-.33-.55-.59-.95-.78-.22-.11-.62-.16-1.18-.16h-.89v9.25c0,.61.03,1,.1,1.15.07.15.2.29.4.4.2.11.47.17.81.17h.4v.33h-6.28v-.33h.4c.35,0,.63-.06.84-.19.15-.08.27-.22.36-.42.06-.14.1-.51.1-1.11v-9.25h-.87c-.81,0-1.4.17-1.76.51-.51.48-.84,1.16-.97,2.04h-.34v-3.25h10.78Z"/>
        <path class="cls-4" d="m86.75,179.34v4.88h.24c.76,0,1.31-.24,1.65-.72.34-.48.56-1.18.65-2.11h.34v6.28h-.34c-.07-.68-.22-1.24-.45-1.68-.23-.44-.49-.73-.79-.88-.3-.15-.74-.23-1.31-.23v3.38c0,.66.03,1.06.08,1.21.06.15.16.27.31.36.15.09.4.14.74.14h.72c1.12,0,2.02-.26,2.69-.78.68-.52,1.16-1.31,1.46-2.37h.33l-.54,3.81h-10.37v-.33h.4c.35,0,.63-.06.84-.19.15-.08.27-.22.35-.42.06-.14.1-.51.1-1.11v-7.89c0-.54-.01-.88-.04-1-.06-.21-.17-.37-.33-.48-.22-.16-.53-.25-.92-.25h-.4v-.33h10.04v3.55h-.34c-.17-.87-.41-1.49-.72-1.87-.31-.38-.75-.65-1.31-.83-.33-.11-.95-.16-1.86-.16h-1.24Z"/>
        <path class="cls-4" d="m98.28,185.18v3.36c0,.65.04,1.06.12,1.23.08.17.22.3.42.4.2.1.57.15,1.12.15v.33h-6.14v-.33c.55,0,.93-.05,1.13-.15.2-.1.34-.24.42-.4.08-.16.12-.57.12-1.22v-7.79c0-.65-.04-1.06-.12-1.23-.08-.17-.22-.3-.42-.4-.2-.1-.58-.15-1.12-.15v-.33h5.57c1.45,0,2.51.1,3.19.3.67.2,1.22.57,1.65,1.11.42.54.64,1.17.64,1.9,0,.88-.32,1.62-.96,2.19-.41.37-.98.64-1.71.82l2.88,4.06c.38.53.65.85.8.98.24.18.52.28.84.3v.33h-3.78l-3.87-5.47h-.79Zm0-5.88v5.26h.5c.82,0,1.43-.08,1.84-.23.41-.15.73-.42.96-.81.23-.39.35-.9.35-1.54,0-.91-.21-1.59-.64-2.03-.43-.44-1.12-.65-2.07-.65h-.95Z"/>
        <path class="cls-4" d="m110.63,178.65l5.92,7.44v-5.16c0-.72-.1-1.21-.31-1.46-.28-.34-.76-.51-1.42-.5v-.33h3.96v.33c-.51.07-.85.15-1.02.25-.17.1-.31.27-.41.5-.1.23-.15.63-.15,1.2v9.99h-.3l-8.11-9.99v7.63c0,.69.16,1.16.47,1.4.32.24.68.36,1.08.36h.28v.33h-4.26v-.33c.66,0,1.12-.14,1.38-.41.26-.27.39-.72.39-1.35v-8.47l-.26-.32c-.25-.32-.48-.53-.67-.63-.19-.1-.47-.16-.84-.17v-.33h4.26Z"/>
        <path class="cls-4" d="m126.3,187.23h-4.24l-.5,1.17c-.17.39-.25.71-.25.96,0,.34.14.58.41.74.16.09.55.16,1.18.21v.33h-3.99v-.33c.43-.07.78-.24,1.06-.54.28-.29.62-.89,1.03-1.81l4.29-9.57h.17l4.33,9.84c.41.93.75,1.52,1.02,1.76.2.18.48.29.85.32v.33h-5.8v-.33h.24c.47,0,.79-.07.98-.19.13-.09.19-.23.19-.41,0-.11-.02-.22-.05-.33-.01-.05-.1-.27-.27-.66l-.64-1.5Zm-.3-.65l-1.79-4.13-1.84,4.13h3.63Z"/>
        <path class="cls-4" d="m141.5,178.65v3.25h-.32c-.19-.75-.4-1.29-.63-1.61-.23-.33-.55-.59-.95-.78-.22-.11-.62-.16-1.18-.16h-.89v9.25c0,.61.03,1,.1,1.15.07.15.2.29.4.4.2.11.47.17.81.17h.4v.33h-6.28v-.33h.4c.35,0,.63-.06.84-.19.15-.08.27-.22.36-.42.06-.14.1-.51.1-1.11v-9.25h-.87c-.81,0-1.39.17-1.76.51-.51.48-.84,1.16-.97,2.04h-.34v-3.25h10.78Z"/>
        <path class="cls-4" d="m148.36,190.32v.33h-6.27v-.33h.4c.35,0,.63-.06.84-.19.15-.08.27-.22.35-.42.07-.14.1-.51.1-1.11v-7.89c0-.61-.03-1-.1-1.15-.06-.15-.2-.29-.39-.4-.2-.11-.46-.17-.8-.17h-.4v-.33h6.27v.33h-.4c-.35,0-.63.06-.84.19-.15.08-.27.22-.36.42-.06.14-.1.51-.1,1.11v7.89c0,.61.03,1,.1,1.15.07.15.2.29.4.4.2.11.46.17.8.17h.4Z"/>
        <path class="cls-4" d="m155.34,178.48c1.91-.07,3.46.49,4.66,1.67,1.19,1.19,1.79,2.67,1.79,4.45,0,1.52-.45,2.86-1.34,4.02-1.18,1.53-2.85,2.3-5,2.3s-3.83-.73-5.01-2.19c-.93-1.16-1.4-2.53-1.4-4.11,0-1.78.61-3.27,1.82-4.45,1.21-1.19,2.7-1.75,4.47-1.68Zm.11.57c-1.1,0-1.93.56-2.5,1.68-.47.92-.7,2.24-.7,3.96,0,2.05.36,3.56,1.08,4.54.5.68,1.2,1.03,2.11,1.03.61,0,1.12-.15,1.52-.44.52-.38.92-.98,1.21-1.81.29-.83.43-1.91.43-3.24,0-1.59-.15-2.77-.44-3.56-.29-.79-.67-1.34-1.13-1.67-.46-.32-.98-.49-1.58-.49Z"/>
        <path class="cls-4" d="m166.51,178.65l5.92,7.44v-5.16c0-.72-.1-1.21-.31-1.46-.28-.34-.76-.51-1.42-.5v-.33h3.96v.33c-.51.07-.85.15-1.02.25-.17.1-.31.27-.41.5-.1.23-.15.63-.15,1.2v9.99h-.3l-8.11-9.99v7.63c0,.69.16,1.16.47,1.4.32.24.68.36,1.08.36h.28v.33h-4.26v-.33c.66,0,1.12-.14,1.38-.41.26-.27.39-.72.39-1.35v-8.47l-.26-.32c-.25-.32-.48-.53-.67-.63-.19-.1-.47-.16-.84-.17v-.33h4.26Z"/>
        <path class="cls-4" d="m182.19,187.23h-4.24l-.5,1.17c-.17.39-.25.71-.25.96,0,.34.14.58.41.74.16.09.55.16,1.18.21v.33h-3.99v-.33c.43-.07.78-.24,1.06-.54.28-.29.62-.89,1.03-1.81l4.29-9.57h.17l4.33,9.84c.41.93.75,1.52,1.02,1.76.2.18.48.29.85.32v.33h-5.8v-.33h.24c.47,0,.79-.07.98-.19.13-.09.19-.23.19-.41,0-.11-.02-.22-.05-.33-.01-.05-.1-.27-.27-.66l-.64-1.5Zm-.3-.65l-1.79-4.13-1.84,4.13h3.63Z"/>
        <path class="cls-4" d="m198.74,186.44l-.45,4.21h-10.65v-.33h.4c.35,0,.63-.06.84-.19.15-.08.27-.22.35-.42.06-.14.1-.51.1-1.11v-7.89c0-.61-.03-1-.1-1.15-.07-.15-.2-.29-.39-.4-.2-.11-.46-.17-.8-.17h-.4v-.33h6.4v.33h-.52c-.35,0-.63.06-.84.19-.15.08-.27.22-.36.42-.07.14-.1.51-.1,1.11v7.64c0,.61.04,1,.11,1.17.07.17.21.29.42.38.15.05.5.08,1.07.08h1c.64,0,1.17-.11,1.59-.34.42-.22.79-.58,1.1-1.06.31-.48.6-1.2.88-2.14h.36Z"/>
        <path class="cls-4" d="m69.85,206.62v3.72c0,.61.03,1,.1,1.15.07.15.2.29.4.4.2.11.46.17.8.17h.4v.33h-6.27v-.33h.4c.35,0,.63-.06.84-.19.15-.08.27-.22.35-.42.06-.14.1-.51.1-1.11v-7.89c0-.61-.03-1-.1-1.15-.06-.15-.2-.29-.39-.4-.2-.11-.46-.17-.8-.17h-.4v-.33h6.27v.33h-.4c-.35,0-.63.06-.84.19-.15.08-.27.22-.36.42-.06.14-.1.51-.1,1.11v3.4h4.24v-3.4c0-.61-.03-1-.1-1.15-.06-.15-.2-.29-.4-.4-.2-.11-.47-.17-.81-.17h-.39v-.33h6.26v.33h-.39c-.35,0-.63.06-.84.19-.15.08-.27.22-.36.42-.06.14-.1.51-.1,1.11v7.89c0,.61.03,1,.1,1.15.06.15.2.29.4.4.2.11.47.17.81.17h.39v.33h-6.26v-.33h.39c.35,0,.63-.06.84-.19.15-.08.27-.22.36-.42.06-.14.1-.51.1-1.11v-3.72h-4.24Z"/>
        <path class="cls-4" d="m85.55,200.23c1.91-.07,3.46.49,4.66,1.67,1.19,1.19,1.79,2.67,1.79,4.45,0,1.52-.45,2.86-1.34,4.02-1.18,1.53-2.85,2.3-5,2.3s-3.83-.73-5.01-2.19c-.93-1.16-1.4-2.53-1.4-4.11,0-1.78.61-3.27,1.82-4.45,1.21-1.19,2.7-1.75,4.47-1.68Zm.11.57c-1.1,0-1.93.56-2.5,1.68-.47.92-.7,2.24-.7,3.96,0,2.05.36,3.56,1.08,4.54.5.68,1.2,1.03,2.11,1.03.61,0,1.11-.15,1.52-.44.52-.38.92-.98,1.21-1.81.29-.83.43-1.91.43-3.24,0-1.59-.15-2.77-.44-3.56-.29-.79-.67-1.34-1.13-1.67-.46-.32-.98-.49-1.58-.49Z"/>
        <path class="cls-4" d="m100.72,200.12l.1,4h-.36c-.17-1-.59-1.81-1.26-2.42-.67-.61-1.39-.92-2.17-.92-.6,0-1.08.16-1.43.48-.35.32-.53.69-.53,1.11,0,.27.06.5.19.71.17.28.45.55.82.82.28.19.92.54,1.92,1.04,1.4.69,2.35,1.34,2.84,1.96.48.61.73,1.32.73,2.11,0,1-.39,1.87-1.17,2.59-.78.72-1.77,1.08-2.98,1.08-.38,0-.73-.04-1.07-.11-.34-.08-.76-.22-1.27-.43-.28-.12-.52-.18-.7-.18-.15,0-.32.06-.49.18-.17.12-.31.3-.42.54h-.33v-4.53h.33c.26,1.27.76,2.25,1.5,2.92.74.67,1.54,1,2.39,1,.66,0,1.19-.18,1.58-.54.39-.36.59-.78.59-1.26,0-.28-.08-.56-.23-.82-.15-.27-.38-.52-.69-.76-.31-.24-.85-.55-1.63-.93-1.09-.54-1.88-.99-2.35-1.37-.48-.38-.84-.8-1.1-1.27-.26-.47-.38-.98-.38-1.54,0-.96.35-1.77,1.05-2.44.7-.67,1.59-1.01,2.65-1.01.39,0,.77.05,1.13.14.28.07.62.2,1.01.39.4.19.68.29.84.29s.27-.05.36-.14c.09-.09.17-.32.25-.68h.27Z"/>
        <path class="cls-4" d="m106.75,206.96v3.33c0,.65.04,1.06.12,1.23.08.17.22.3.42.4.2.1.58.15,1.12.15v.33h-6.1v-.33c.55,0,.93-.05,1.13-.15.2-.1.34-.24.42-.4.08-.16.12-.57.12-1.22v-7.79c0-.65-.04-1.06-.12-1.23-.08-.17-.22-.3-.42-.4-.2-.1-.58-.15-1.12-.15v-.33h5.23c1.72,0,2.96.31,3.71.92.75.61,1.12,1.38,1.12,2.3,0,.78-.24,1.45-.73,2-.48.55-1.15.93-2,1.13-.57.14-1.54.21-2.9.21Zm0-5.87v5.18c.19.01.34.02.44.02.72,0,1.27-.21,1.66-.64.39-.43.58-1.09.58-1.99s-.19-1.54-.58-1.96c-.39-.41-.97-.62-1.74-.62h-.36Z"/>
        <path class="cls-4" d="m119.12,212.07v.33h-6.27v-.33h.4c.35,0,.63-.06.84-.19.15-.08.27-.22.35-.42.07-.14.1-.51.1-1.11v-7.89c0-.61-.03-1-.1-1.15-.06-.15-.2-.29-.39-.4-.2-.11-.46-.17-.8-.17h-.4v-.33h6.27v.33h-.4c-.35,0-.63.06-.84.19-.15.08-.27.22-.36.42-.06.14-.1.51-.1,1.11v7.89c0,.61.03,1,.1,1.15.07.15.2.29.4.4.2.11.46.17.8.17h.4Z"/>
        <path class="cls-4" d="m130.53,200.4v3.25h-.32c-.19-.75-.4-1.29-.63-1.61-.23-.33-.55-.59-.95-.78-.22-.11-.62-.16-1.18-.16h-.89v9.25c0,.61.03,1,.1,1.15.07.15.2.29.4.4.2.11.47.17.81.17h.4v.33h-6.28v-.33h.4c.35,0,.63-.06.84-.19.15-.08.27-.22.36-.42.06-.14.1-.51.1-1.11v-9.25h-.87c-.81,0-1.39.17-1.76.51-.51.48-.84,1.16-.97,2.04h-.34v-3.25h10.78Z"/>
        <path class="cls-4" d="m136.95,208.98h-4.24l-.5,1.17c-.17.39-.25.71-.25.96,0,.34.14.58.41.74.16.09.55.16,1.18.21v.33h-3.99v-.33c.43-.07.78-.24,1.06-.54.28-.29.62-.89,1.03-1.81l4.29-9.57h.17l4.33,9.84c.41.93.75,1.52,1.02,1.76.2.18.48.29.85.32v.33h-5.8v-.33h.24c.47,0,.79-.07.98-.19.13-.09.19-.23.19-.41,0-.11-.02-.22-.05-.33-.01-.05-.1-.27-.27-.66l-.64-1.5Zm-.3-.65l-1.79-4.13-1.84,4.13h3.63Z"/>
        <path class="cls-4" d="m153.5,208.18l-.45,4.21h-10.65v-.33h.4c.35,0,.63-.06.84-.19.15-.08.27-.22.35-.42.06-.14.1-.51.1-1.11v-7.89c0-.61-.03-1-.1-1.15-.07-.15-.2-.29-.39-.4-.2-.11-.46-.17-.8-.17h-.4v-.33h6.4v.33h-.52c-.35,0-.63.06-.84.19-.15.08-.27.22-.36.42-.07.14-.1.51-.1,1.11v7.64c0,.61.04,1,.11,1.17.07.17.21.29.42.38.15.05.5.08,1.07.08h1c.64,0,1.17-.11,1.59-.34.42-.22.79-.58,1.1-1.06.31-.48.6-1.2.88-2.14h.36Z"/>
        <path class="cls-4" d="m160.35,212.07v.33h-6.27v-.33h.4c.35,0,.63-.06.84-.19.15-.08.27-.22.35-.42.07-.14.1-.51.1-1.11v-7.89c0-.61-.03-1-.1-1.15-.06-.15-.2-.29-.39-.4-.2-.11-.46-.17-.8-.17h-.4v-.33h6.27v.33h-.4c-.35,0-.63.06-.84.19-.15.08-.27.22-.36.42-.06.14-.1.51-.1,1.11v7.89c0,.61.03,1,.1,1.15.07.15.2.29.4.4.2.11.46.17.8.17h.4Z"/>
        <path class="cls-4" d="m171.76,200.4v3.25h-.32c-.19-.75-.4-1.29-.63-1.61-.23-.33-.55-.59-.95-.78-.22-.11-.62-.16-1.18-.16h-.89v9.25c0,.61.03,1,.1,1.15.07.15.2.29.4.4.2.11.47.17.81.17h.4v.33h-6.28v-.33h.4c.35,0,.63-.06.84-.19.15-.08.27-.22.36-.42.06-.14.1-.51.1-1.11v-9.25h-.87c-.81,0-1.39.17-1.76.51-.51.48-.84,1.16-.97,2.04h-.34v-3.25h10.78Z"/>
        <path class="cls-4" d="m184.86,200.4v.33c-.4.05-.7.17-.91.35-.29.25-.76.92-1.4,2.03l-2.6,4.34v2.9c0,.62.03,1,.1,1.15.06.15.19.28.38.4.19.11.45.17.77.17h.67v.33h-6.73v-.33h.63c.35,0,.63-.06.84-.19.15-.08.27-.22.36-.42.06-.14.1-.51.1-1.11v-2.41l-2.82-5.14c-.56-1.01-.96-1.61-1.19-1.79-.23-.18-.54-.27-.92-.28v-.33h5.75v.33h-.26c-.35,0-.59.05-.73.15-.14.1-.21.21-.21.32,0,.21.24.75.71,1.6l2.17,3.97,2.16-3.62c.54-.88.8-1.47.8-1.76,0-.16-.08-.29-.23-.4-.2-.15-.57-.24-1.11-.27v-.33h3.66Z"/>
        <path class="cls-4" d="m91.75,221.86v4.16h-.35c-.26-1.09-.74-1.92-1.45-2.5-.71-.58-1.51-.87-2.41-.87-.75,0-1.44.22-2.06.65-.63.43-1.08.99-1.37,1.69-.37.89-.56,1.88-.56,2.97s.14,2.05.41,2.93c.27.88.7,1.55,1.27,2,.58.45,1.33.68,2.25.68.75,0,1.45-.16,2.07-.5.63-.33,1.29-.9,1.99-1.71v1.04c-.67.7-1.37,1.21-2.1,1.53-.73.32-1.58.47-2.55.47-1.28,0-2.42-.26-3.41-.77s-1.76-1.25-2.3-2.21c-.54-.96-.81-1.98-.81-3.07,0-1.14.3-2.23.9-3.26.6-1.03,1.41-1.82,2.42-2.39,1.02-.57,2.1-.85,3.24-.85.84,0,1.73.18,2.67.55.54.21.89.32,1.04.32.19,0,.35-.07.49-.21.14-.14.23-.36.27-.66h.35Z"/>
        <path class="cls-4" d="m99.3,221.97c1.91-.07,3.46.49,4.66,1.67,1.19,1.19,1.79,2.67,1.79,4.45,0,1.52-.45,2.86-1.34,4.02-1.18,1.53-2.85,2.3-5,2.3s-3.83-.73-5.01-2.19c-.93-1.16-1.4-2.53-1.4-4.11,0-1.78.61-3.27,1.82-4.45,1.21-1.19,2.7-1.75,4.47-1.68Zm.11.57c-1.1,0-1.93.56-2.5,1.68-.47.92-.7,2.24-.7,3.96,0,2.05.36,3.56,1.08,4.54.5.68,1.2,1.03,2.11,1.03.61,0,1.12-.15,1.52-.44.52-.38.92-.98,1.21-1.81.29-.83.43-1.91.43-3.24,0-1.59-.15-2.77-.44-3.56-.29-.79-.67-1.34-1.13-1.67-.46-.32-.98-.49-1.58-.49Z"/>
        <path class="cls-4" d="m114.6,230.05l3.26-7.91h4.88v.33h-.39c-.35,0-.64.06-.85.19-.15.08-.27.22-.35.42-.07.14-.1.51-.1,1.11v7.91c0,.61.03,1,.1,1.15.06.15.2.29.4.4.2.11.47.17.81.17h.39v.33h-6.26v-.33h.39c.35,0,.64-.06.85-.19.15-.08.27-.22.35-.42.06-.14.1-.51.1-1.11v-8.89l-4.6,10.94h-.21l-4.67-10.86v8.45c0,.59.01.95.04,1.09.08.3.24.54.5.72.26.19.66.28,1.21.28v.33h-4.11v-.33h.12c.27,0,.51-.04.74-.13.23-.09.4-.21.52-.37.12-.15.21-.37.27-.65.01-.06.02-.37.02-.9v-7.59c0-.61-.03-.99-.1-1.14-.07-.15-.2-.28-.4-.4-.2-.11-.47-.17-.81-.17h-.38v-.33h4.9l3.37,7.91Z"/>
        <path class="cls-4" d="m127.52,228.7v3.33c0,.65.04,1.06.12,1.23.08.17.22.3.42.4.2.1.58.15,1.12.15v.33h-6.1v-.33c.55,0,.93-.05,1.13-.15.2-.1.34-.24.42-.4.08-.16.12-.57.12-1.22v-7.79c0-.65-.04-1.06-.12-1.23-.08-.17-.22-.3-.42-.4-.2-.1-.58-.15-1.12-.15v-.33h5.23c1.72,0,2.96.31,3.71.92.75.61,1.12,1.38,1.12,2.3,0,.78-.24,1.45-.73,2-.48.55-1.15.93-2,1.13-.57.14-1.54.21-2.9.21Zm0-5.87v5.18c.19.01.34.02.44.02.72,0,1.27-.21,1.66-.64.39-.43.58-1.09.58-1.99s-.19-1.54-.58-1.96c-.39-.41-.97-.62-1.74-.62h-.36Z"/>
        <path class="cls-4" d="m139.46,230.72h-4.24l-.5,1.17c-.17.39-.25.71-.25.96,0,.34.14.58.41.74.16.09.55.16,1.18.21v.33h-3.99v-.33c.43-.07.78-.24,1.06-.54.28-.29.62-.89,1.03-1.81l4.29-9.57h.17l4.33,9.84c.41.93.75,1.52,1.02,1.76.2.18.48.29.85.32v.33h-5.8v-.33h.24c.47,0,.79-.07.98-.19.13-.09.19-.23.19-.41,0-.11-.02-.22-.05-.33-.01-.05-.1-.27-.27-.66l-.64-1.5Zm-.3-.65l-1.79-4.13-1.84,4.13h3.63Z"/>
        <path class="cls-4" d="m149.08,222.14l5.92,7.44v-5.16c0-.72-.1-1.21-.31-1.46-.28-.34-.76-.51-1.42-.5v-.33h3.96v.33c-.51.07-.85.15-1.02.25-.17.1-.31.27-.41.5-.1.23-.15.63-.15,1.2v9.99h-.3l-8.11-9.99v7.63c0,.69.16,1.16.47,1.4.32.24.68.36,1.08.36h.28v.33h-4.26v-.33c.66,0,1.12-.14,1.38-.41.26-.27.39-.72.39-1.35v-8.47l-.26-.32c-.25-.32-.48-.53-.67-.63-.19-.1-.47-.16-.84-.17v-.33h4.26Z"/>
        <path class="cls-4" d="m170.1,222.14v.33c-.4.05-.7.17-.91.35-.29.25-.76.92-1.4,2.03l-2.6,4.34v2.9c0,.62.03,1,.1,1.15.06.15.19.28.38.4.19.11.45.17.77.17h.67v.33h-6.73v-.33h.63c.35,0,.63-.06.84-.19.15-.08.27-.22.36-.42.06-.14.1-.51.1-1.11v-2.41l-2.82-5.14c-.56-1.01-.96-1.61-1.19-1.79-.23-.18-.54-.27-.92-.28v-.33h5.75v.33h-.26c-.35,0-.59.05-.73.15-.14.1-.21.21-.21.32,0,.21.24.75.71,1.6l2.17,3.97,2.16-3.62c.54-.88.8-1.47.8-1.76,0-.16-.08-.29-.23-.4-.2-.15-.57-.24-1.11-.27v-.33h3.66Z"/>
      </g>
      <g>
        <path class="cls-4" d="m114.6,168.86v.33h-6.27v-.33h.4c.35,0,.63-.06.84-.19.15-.08.27-.22.35-.42.06-.14.1-.51.1-1.11v-7.89c0-.61-.03-1-.1-1.15-.06-.15-.2-.29-.39-.4-.2-.11-.46-.17-.8-.17h-.4v-.33h6.27v.33h-.4c-.35,0-.63.06-.84.19-.15.08-.27.22-.36.42-.06.14-.1.51-.1,1.11v7.89c0,.61.03,1,.1,1.15.07.15.2.29.4.4.2.11.46.17.8.17h.4Z"/>
        <path class="cls-4" d="m119.53,163.41v3.72c0,.61.03,1,.1,1.15.07.15.2.29.4.4.2.11.46.17.8.17h.4v.33h-6.27v-.33h.4c.35,0,.63-.06.84-.19.15-.08.27-.22.35-.42.06-.14.1-.51.1-1.11v-7.89c0-.61-.03-1-.1-1.15-.06-.15-.2-.29-.39-.4-.2-.11-.46-.17-.8-.17h-.4v-.33h6.27v.33h-.4c-.35,0-.63.06-.84.19-.15.08-.27.22-.36.42-.06.14-.1.51-.1,1.11v3.4h4.24v-3.4c0-.61-.03-1-.1-1.15-.06-.15-.2-.29-.4-.4-.2-.11-.47-.17-.81-.17h-.39v-.33h6.26v.33h-.39c-.35,0-.63.06-.84.19-.15.08-.27.22-.36.42-.07.14-.1.51-.1,1.11v7.89c0,.61.03,1,.1,1.15.06.15.2.29.4.4.2.11.47.17.81.17h.39v.33h-6.26v-.33h.39c.35,0,.63-.06.84-.19.15-.08.27-.22.36-.42.06-.14.1-.51.1-1.11v-3.72h-4.24Z"/>
        <path class="cls-4" d="m140.33,156.91v4.16h-.34c-.26-1.09-.74-1.92-1.45-2.5-.71-.58-1.51-.87-2.41-.87-.75,0-1.44.22-2.06.65-.63.43-1.08.99-1.37,1.69-.37.89-.56,1.88-.56,2.97s.14,2.05.41,2.93c.27.88.7,1.55,1.27,2,.58.45,1.33.68,2.25.68.75,0,1.45-.16,2.07-.5.63-.33,1.29-.9,1.99-1.71v1.04c-.67.7-1.37,1.21-2.1,1.53-.73.32-1.58.47-2.55.47-1.28,0-2.42-.26-3.41-.77s-1.76-1.25-2.3-2.21c-.54-.96-.81-1.98-.81-3.07,0-1.14.3-2.23.9-3.26.6-1.03,1.41-1.82,2.42-2.39,1.02-.57,2.1-.85,3.24-.85.84,0,1.73.18,2.67.55.54.21.89.32,1.04.32.19,0,.35-.07.49-.21.14-.14.23-.36.27-.66h.34Z"/>
      </g>
    </g>
    <g>
      <g class="cls-1">
        <g class="cls-5">
          <path class="cls-4" d="m142.79,107.77c-.21-5.31-2.53-10.15-6.41-14.04-1.02-1.02-2.14-2-3.35-2.92l-1.44-1.04c-4.36-3.02-9.75-5.42-15.83-7.04v-20.05h17.26v19.63c.42.19.83.39,1.24.59,2.71,1.36,5.18,3.15,7.32,5.26v-33.71h-34.39v35.31c1.47.28,2.9.6,4.29.95,1.41.26,2.84.6,4.27,1.02,1.83.54,3.68,1.21,5.52,2.01,1.87.82,3.65,1.74,5.31,2.74l-.46.39c-5.66,4.57-11.88,5.4-18.9,5.4,0,0-.04,37.06-.04,37.41,0,.24,5.3-.01,5.79-.07,2.23-.26,4.41-.81,6.51-1.59,4.32-1.6,8.28-4.12,11.69-7.2,5.76-5.18,10.42-11.74,11.44-19.57.15-1.19.21-2.35.16-3.49m-27.03,22.22v-19.32c6.75-.6,12.64-3.61,16.41-7.98h0c.23.38,8.78,14.61-16.41,27.3"/>
        </g>
      </g>
      <path class="cls-4" d="m124.91,15.59c-9.39,0-17,7.61-17,17s7.61,17,17,17,17-7.61,17-17-7.61-17-17-17Zm0,25.36c-4.62,0-8.36-3.75-8.36-8.36s3.75-8.36,8.36-8.36,8.36,3.75,8.36,8.36-3.75,8.36-8.36,8.36Z"/>
    </g>
  </g>
</svg>