<?xml version="1.0" encoding="UTF-8"?>
<svg id="Layer_1" data-name="Layer 1" xmlns="http://www.w3.org/2000/svg" viewBox="0 0 250 250">
  <defs>
    <style>
      .guarantee-1{
        fill: #0f2e72;
      }

      .guarantee-1, .guarantee-2 {
        stroke-width: 0px;
      }

      .guarantee-2 {
        fill: #101a3a;
      }
    </style>
  </defs>
  <path class="guarantee-2" d="m169.51,147.98c-12.57-11.65-25.32-23.11-37.78-34.87-2.49-2.35-3.94-1.79-6.16-.03-4.82,3.82-9.65,7.65-14.75,11.07-6.58,4.41-13.75,4.73-20.88,1.41-15.29-7.11-17.24-26.77-3.74-37.9,8.06-6.65,16.32-13.06,25.09-20.06-11.24-3.98-19.07-3.22-28.32,2.67-6.58,4.2-13.02,8.64-19.54,12.93-1.6,1.06-2.61,2.17-2.6,4.36.09,21.47.09,42.93,0,64.4,0,2.41.73,3.46,3.09,3,4.45-.86,7.41,1.45,10.44,4.28,7.91,7.37,15.94,14.62,24.11,21.71,7.15,6.21,15.96,5.14,21.77-2.38,1.08-1.4,1.99-2.95,3-4.44.6.45,1.02.72,1.39,1.05,11.69,10.21,16.35,10.04,26.93-1.21,1.16-1.23,1.78-.72,2.91-.35,8.64,2.79,15.2.55,19.32-6.5,3.68-6.3,2.26-13.09-4.27-19.14Z"/>
  <path class="guarantee-2" d="m46.91,84.94c-6.13.29-12.29.06-18.44.09-6.4.03-7.55,1.16-7.56,7.56-.03,18.28,0,36.56,0,54.84,0,16.17,1.54,17.7,17.61,17.55,8.74-.09,12.3-3.61,12.35-12.48.07-10.47.02-20.94.02-31.41,0-10.64-.11-21.27.07-31.91.05-3.11-.59-4.4-4.04-4.24Z"/>
  <g>
    <path class="guarantee-1" d="m178.5,83.9c-7.18-4.51-14.16-9.34-21.36-13.82-11.74-7.3-24.49-6.87-35.38,1.6-10.37,8.07-20.37,16.62-30.5,25.01-3.32,2.75-4.81,6.28-3.97,10.64,1.79,9.35,11.82,13.44,19.63,7.68,7.76-5.73,15.19-11.9,22.79-17.86,2.75-2.15,5.47-4.35,8.36-6.3,2.43-1.64,4.81-1.09,6.62,1.17,1.72,2.15,1.43,4.4-.38,6.32-1.24,1.32-2.64,2.59-4.19,3.51-2.76,1.64-2.22,2.87-.13,4.74,7.2,6.43,14.25,13.03,21.35,19.58,6.2,5.71,12.39,11.42,19.45,17.92,0-19.53-.03-37.68.04-55.83,0-2.05-.55-3.26-2.34-4.39Z"/>
    <path class="guarantee-1" d="m220.76,92.5c-.03-5.92-1.54-7.43-7.33-7.47-5.99-.04-12.01.3-17.97-.11-4.2-.29-4.77,1.37-4.74,5.02.16,19.31.08,38.63.08,57.94,0,15.56,1.62,17.17,17.12,17.09,9.4-.05,12.81-3.48,12.85-13.03.04-9.66,0-19.31,0-28.97,0-10.16.04-20.31-.01-30.47Z"/>
  </g>
</svg>