<?xml version="1.0" encoding="UTF-8"?>
<svg id="online-basvuru" xmlns="http://www.w3.org/2000/svg" viewBox="0 0 70 70">
  <defs>
    <style>
      .cls-1 {
        fill: #232447;
        stroke-width: 0px;
      }
    </style>
  </defs>
  <polygon class="cls-1" points="44.57 27.86 44.57 27.87 44.55 27.89 44.57 27.92 44.57 27.86"/>
  <g>
    <g>
      <path class="cls-1" d="m15.48,26.61c1.77,0,3.2-3.05,3.2-4.82s-1.43-3.2-3.2-3.2-3.2,1.43-3.2,3.2,1.43,4.82,3.2,4.82Z"/>
      <path class="cls-1" d="m22.29,53.88l-6.29-2.01v-4.1h5.64c.67,0,1.21-.54,1.21-1.21s-.54-1.21-1.21-1.21h-9.5c-1.83,0-1.51-.13-2.18-1.82l-1.39-3.49.85.24s.09.02.14.02c.14,0,.28-.06.38-.17.13-.14.17-.35.1-.53l-3.95-10.01c-.09-.22-.32-.35-.56-.32-.24.04-.41.23-.43.47l-.15,2.44c-.26-.08-.54-.08-.81.03-.62.25-.92.95-.68,1.58l4.25,10.64c1.05,2.62,1.61,3.35,4.43,3.35h2.41v4.1l-6.29,2.01c-.3.1-.51.38-.51.69v2.12c0,.4.33.73.73.73s.73-.33.73-.73v-1.59l5.34-1.71v2.84c0,.4.33.73.73.73s.73-.33.73-.73v-2.84l5.34,1.71v1.59c0,.4.33.73.73.73s.73-.33.73-.73v-2.12c0-.32-.2-.6-.51-.69Z"/>
      <path class="cls-1" d="m27.7,33.63c-.92-.12-1.89-.2-2.98-.27-.16,0-.33-.02-.49-.02-.33-.02-.66-.04-.99-.05h-.19s-.06,0-.06,0l-.03-.02s-.02-.01-.02-.02l-.23-.24c-.87-.92-1.55-1.63-2.2-2.28-.51-.52-1.1-1.12-1.72-1.71-.06-.06-.12-.12-.18-.17-.16-.15-.34-.27-.54-.38-.17-.1-.35-.19-.54-.26-.6-.22-1.27-.29-1.93-.14-1.88.4-3.08,2.24-2.68,4.12l2.06,9.72c.03.12.57,2.16,1.9,2.26l6.77.49,1.36,7.64c.1.56.61.98,1.2.95.63-.03,1.12-.58,1.09-1.21l-.5-9.17c-.04-.74-.61-1.38-1.37-1.48l-.15-.02-4.58-.61-.63-6.74c.34.34.7.69,1.07,1.04l.33.32c.2.17.41.3.62.4.21.1.45.16.71.18.06,0,.12,0,.18,0h.29c.32-.02.64-.04.97-.06.17,0,.35-.02.52-.03,1.08-.06,2.05-.15,2.97-.27.4-.05.73-.41.77-.87h0c.05-.54-.3-1.02-.77-1.08Z"/>
    </g>
    <g>
      <path class="cls-1" d="m54.52,26.61c-1.77,0-3.2-3.05-3.2-4.82s1.43-3.2,3.2-3.2,3.2,1.43,3.2,3.2-1.43,4.82-3.2,4.82Z"/>
      <path class="cls-1" d="m47.71,53.88l6.29-2.01v-4.1h-5.64c-.67,0-1.21-.54-1.21-1.21s.54-1.21,1.21-1.21h9.5c1.83,0,1.51-.13,2.18-1.82l1.39-3.49-.85.24s-.09.02-.14.02c-.14,0-.28-.06-.38-.17-.13-.14-.17-.35-.1-.53l3.95-10.01c.09-.22.32-.35.56-.32.24.04.41.23.43.47l.15,2.44c.26-.08.54-.08.81.03.62.25.92.95.68,1.58l-4.25,10.64c-1.05,2.62-1.61,3.35-4.43,3.35h-2.41v4.1l6.29,2.01c.3.1.51.38.51.69v2.12c0,.4-.33.73-.73.73s-.73-.33-.73-.73v-1.59l-5.34-1.71v2.84c0,.4-.33.73-.73.73s-.73-.33-.73-.73v-2.84l-5.34,1.71v1.59c0,.4-.33.73-.73.73s-.73-.33-.73-.73v-2.12c0-.32.2-.6.51-.69Z"/>
      <path class="cls-1" d="m42.3,33.63c.92-.12,1.89-.2,2.98-.27.16,0,.33-.02.49-.02.33-.02.66-.04.99-.05h.19s.06,0,.06,0l.03-.02s.02-.01.02-.02l.23-.24c.87-.92,1.55-1.63,2.2-2.28.51-.52,1.1-1.12,1.72-1.71.06-.06.12-.12.18-.17.16-.15.34-.27.54-.38.17-.1.35-.19.54-.26.6-.22,1.27-.29,1.93-.14,1.88.4,3.08,2.24,2.68,4.12l-2.06,9.72c-.03.12-.57,2.16-1.9,2.26l-6.77.49-1.36,7.64c-.1.56-.61.98-1.2.95-.63-.03-1.12-.58-1.09-1.21l.5-9.17c.04-.74.61-1.38,1.37-1.48l.15-.02,4.58-.61.63-6.74c-.34.34-.7.69-1.07,1.04l-.33.32c-.2.17-.41.3-.62.4-.21.1-.45.16-.71.18-.06,0-.12,0-.18,0h-.29c-.32-.02-.64-.04-.97-.06-.17,0-.35-.02-.52-.03-1.08-.06-2.05-.15-2.97-.27-.4-.05-.73-.41-.77-.87h0c-.05-.54.3-1.02.77-1.08Z"/>
    </g>
  </g>
  <g>
    <path class="cls-1" d="m28.73,20.28c.14-3.12,1.8-5.88,4.25-7.56-.34-.06-.68-.11-1.03-.12-4.68-.22-8.54,3.51-8.54,8.14,0,1.92.66,3.68,1.77,5.07.17.21.22.49.12.74-.23.57-.73,1.56-1.74,2.53-.07.07-.04.18.06.2.8.13,3.57.5,5.68-.47.21-.09.43-.12.65-.08.52.11,1.06.16,1.62.16.47,0,.94-.05,1.39-.13-.55-.38-1.06-.81-1.54-1.31-1.85-1.94-2.8-4.48-2.68-7.16Z"/>
    <path class="cls-1" d="m44.7,26.53c-.1-.25-.05-.53.12-.74,1.1-1.39,1.77-3.15,1.77-5.07,0-4.62-3.86-8.36-8.54-8.14-4.15.2-7.56,3.62-7.75,7.76-.21,4.67,3.51,8.53,8.14,8.53.56,0,1.1-.05,1.62-.16.22-.05.45-.02.65.08,2.11.97,4.88.6,5.68.46.1-.01.13-.13.06-.2-1.01-.97-1.51-1.96-1.75-2.53Zm-10.37-4.74c-.56,0-1.02-.46-1.02-1.02s.46-1.02,1.02-1.02,1.02.46,1.02,1.02-.46,1.02-1.02,1.02Zm4.11,0c-.56,0-1.02-.46-1.02-1.02s.46-1.02,1.02-1.02,1.02.46,1.02,1.02-.46,1.02-1.02,1.02Zm4.11,0c-.56,0-1.02-.46-1.02-1.02s.46-1.02,1.02-1.02,1.02.46,1.02,1.02-.46,1.02-1.02,1.02Z"/>
  </g>
</svg>