<?xml version="1.0" encoding="UTF-8"?>
<svg id="Layer_1" data-name="Layer 1" xmlns="http://www.w3.org/2000/svg" viewBox="0 0 250 250">
  <defs>
    <style>
      .cls-1 {
        fill: #141414;
        stroke-width: 0px;
      }
    </style>
  </defs>
  <path class="cls-1" d="m160.76,192.03c-6.63-.62-12.28-4.62-13.28-10.97-1.34-8.46-2.65-17.26,4.08-25.63-3.36-.95-6.03-2.32-8.73-2.36-16.62-.26-33.31-1.23-49.84-.02-19.22,1.41-33.46,16.8-35.68,35.95-1.11,9.57,1.82,12.87,11.5,12.87,30.98.01,61.97,0,92.95,0,1.62,0,3.24,0,5.21,0-.17-3.48-.31-6.4-.46-9.55-2.16-.11-3.96-.13-5.75-.3Z"/>
  <path class="cls-1" d="m116.69,141.87c16.07.03,29.99-13.88,29.93-29.93-.06-16.08-14-29.91-30.06-29.8-16.15.1-29.64,13.89-29.54,30.18.1,15.99,13.69,29.52,29.67,29.55Z"/>
  <path class="cls-1" d="m89.03,141.89q-11.71-18.4-12.25-36.48c-7.9-3.61-19.54-4.53-32.03-2.59-15.01,2.32-26.2,14.2-27.55,29.23-.64,7.19,1.68,9.81,8.9,9.83,15.96.04,31.93.01,47.89.01h15.05Z"/>
  <path class="cls-1" d="m216.7,168.46c-.26-4.23-2.09-6.45-6.5-6.36-4.42.09-8.84.02-13.52.02,0-2.93,0-5.08,0-7.23,0-12.94-.52-13.36-13.53-12.81-4.39.19-6.32,2.17-6.2,6.53.12,4.28.03,8.57.03,13.5-2.99,0-5.14,0-7.29,0-13.18,0-13.12.04-12.76,13.43.12,4.43,2.05,6.4,6.38,6.35,4.42-.05,8.84-.01,13.67-.01,0,3.03,0,5.33,0,7.62q0,12.71,12.76,12.38c5.27-.14,6.78-1.57,6.91-6.88.11-4.25.02-8.5.02-13.12,3.04,0,5.34,0,7.64,0,12.38,0,13.15-.89,12.39-13.43Z"/>
  <path class="cls-1" d="m160.27,103.93c-1.39.24-2.67,1.08-3.89,1.59,1.52,13.95-2.37,25.68-12.67,36.36,7.94,0,14.59.12,21.22-.1,1.32-.04,3.04-1.09,3.83-2.2,6.11-8.63,24.89-10.92,32.76-3.83.98.88,2.09,1.85,2.56,3.02,1.53,3.77,4.76,4.08,7.34,2.57,2.21-1.29,4.84-4.25,4.85-6.48.03-9.52-3.36-17.99-10.84-24.24-13.63-11.39-29.38-9.44-45.17-6.67Z"/>
  <path class="cls-1" d="m61.53,91.83c13.19.22,25-11.43,25.08-24.73.08-13.24-11.62-24.95-24.9-24.92-13.22.04-24.57,11.29-24.7,24.48-.13,13.56,10.96,24.94,24.52,25.17Z"/>
  <path class="cls-1" d="m176.9,91.82c13.2-.15,24.52-11.41,24.72-24.59.2-13.21-11.41-24.94-24.77-25.04-13.39-.1-24.84,11.36-24.83,24.85.01,13.48,11.52,24.94,24.88,24.79Z"/>
</svg>